<?xml version="1.0" standalone="no"?>
<!DOCTYPE svg PUBLIC "-//W3C//DTD SVG 20010904//EN"
 "http://www.w3.org/TR/2001/REC-SVG-20010904/DTD/svg10.dtd">
<svg version="1.0" xmlns="http://www.w3.org/2000/svg"
 width="1500.000000pt" height="500.000000pt" viewBox="0 0 1500.000000 500.000000"
 preserveAspectRatio="xMidYMid meet">

<g transform="translate(0.000000,500.000000) scale(0.100000,-0.100000)"
fill="#000000" stroke="none">
<path d="M0 2500 l0 -2500 7500 0 7500 0 0 2500 0 2500 -7500 0 -7500 0 0
-2500z m13216 2159 c34 -16 42 -50 21 -83 -10 -15 -12 -28 -6 -38 21 -38 -13
-63 -59 -46 -37 14 -62 -2 -62 -38 0 -17 8 -28 28 -35 26 -10 26 -11 8 -25
-11 -8 -41 -14 -67 -14 -42 0 -53 5 -89 38 -38 37 -40 42 -40 99 0 52 4 64 27
89 15 16 26 33 25 38 -8 25 10 31 95 30 54 -1 102 -7 119 -15z m592 -16 l-168
-3 0 -110 0 -110 168 -3 167 -3 -172 -2 -173 -2 0 120 0 120 173 -2 172 -2
-167 -3z m680 0 c-10 -2 -28 -2 -40 0 -13 2 -5 4 17 4 22 1 32 -1 23 -4z m155
0 c-23 -2 -64 -2 -90 0 -26 2 -7 3 42 3 50 0 71 -1 48 -3z m-771 -68 c37 -22
68 -42 67 -45 0 -3 -31 -24 -70 -47 l-70 -42 -69 42 c-38 23 -69 44 -69 47 0
6 132 88 139 86 3 0 35 -19 72 -41z m771 38 c-24 -2 -62 -2 -85 0 -24 2 -5 4
42 4 47 0 66 -2 43 -4z m37 -33 c0 -6 -33 -10 -80 -10 -47 0 -80 4 -80 10 0 6
33 10 80 10 47 0 80 -4 80 -10z m0 -32 c0 -4 -36 -8 -80 -8 -44 0 -80 4 -80 8
0 5 36 9 80 8 44 0 80 -4 80 -8z m0 -38 c0 -6 -62 -10 -165 -10 -103 0 -165 4
-165 10 0 6 62 10 165 10 103 0 165 -4 165 -10z m0 -30 c0 -6 -62 -10 -165
-10 -103 0 -165 4 -165 10 0 6 62 10 165 10 103 0 165 -4 165 -10z m0 -38 c0
-4 -74 -7 -165 -7 -103 0 -165 4 -165 10 0 6 60 9 165 7 91 -2 165 -6 165 -10z
m-77 -29 c-45 -2 -122 -2 -170 0 -48 1 -11 3 82 3 94 0 133 -2 88 -3z m-14407
-318 c2 -22 -1 -25 -20 -19 -35 11 -41 23 -15 33 34 14 34 14 35 -14z m4 -210
c0 -5 -13 -10 -30 -10 -16 0 -30 5 -30 10 0 6 14 10 30 10 17 0 30 -4 30 -10z
m0 -197 c0 -5 -6 -8 -12 -9 -10 0 -10 -2 0 -6 21 -8 13 -23 -12 -23 -28 0 -40
14 -33 34 6 14 57 17 57 4z m-3 -219 c19 -19 3 -39 -31 -38 -31 2 -31 2 -3 6
33 5 31 25 -4 34 l-24 7 25 1 c15 1 31 -4 37 -10z m4728 -39 c197 -58 296 -63
453 -25 142 34 223 33 348 -5 55 -17 140 -35 189 -40 134 -13 265 -69 326
-138 31 -35 31 -35 27 -137 -3 -97 -5 -106 -46 -186 -41 -79 -74 -120 -117
-144 -17 -10 -17 -13 -3 -35 9 -14 19 -36 23 -50 4 -14 15 -43 25 -65 44 -97
30 -191 -36 -258 -81 -81 -178 -87 -291 -19 -111 67 -193 75 -291 30 -163 -77
-191 -306 -52 -431 58 -52 116 -71 195 -65 52 4 55 4 49 -16 -14 -52 -61 -102
-126 -135 -60 -30 -78 -35 -169 -39 -59 -3 -130 0 -169 7 -60 11 -71 11 -94
-4 -23 -15 -34 -16 -93 -5 -144 25 -275 102 -349 205 -28 39 -46 54 -63 55
-33 0 -94 70 -137 155 -39 78 -66 207 -63 295 1 35 -4 70 -16 95 -24 55 -15
182 20 288 50 146 181 305 311 379 50 28 54 32 40 47 -22 24 -46 97 -46 138 0
61 37 122 75 123 6 0 42 -9 80 -20z m2298 -936 c-2 -477 -5 -869 -8 -872 -3
-3 -5 387 -5 866 0 480 3 872 8 872 4 0 6 -390 5 -866z m-7056 753 c3 10 8 10
19 -1 21 -21 18 -26 -16 -26 -24 0 -30 4 -30 23 0 18 2 19 11 7 8 -11 12 -12
16 -3z m12468 -157 c120 -11 253 -36 273 -52 17 -15 17 -221 -1 -237 -20 -16
-147 -43 -183 -39 -30 4 -31 2 -23 -24 7 -25 5 -28 -17 -28 -14 0 -41 7 -61
15 -19 8 -44 15 -55 15 -14 0 -18 5 -15 15 4 8 2 17 -2 20 -5 2 -11 -5 -14
-16 -5 -18 -11 -21 -39 -16 -23 3 -52 -4 -95 -23 -34 -16 -64 -26 -67 -23 -3
3 -3 15 0 27 5 20 -2 22 -97 39 -56 9 -113 23 -128 30 -26 12 -26 14 -29 125
l-3 113 33 13 c44 19 142 36 253 46 134 11 150 11 270 0z m-4017 -201 c52 -94
92 -172 90 -174 -4 -4 -71 -7 -109 -6 -24 1 -35 16 -94 124 -38 67 -75 132
-82 144 -14 21 -12 24 33 53 26 16 53 30 58 30 6 -1 53 -77 104 -171z m1391
130 c6 -32 7 -32 70 -33 39 -1 66 -6 68 -13 2 -6 -21 -26 -51 -44 -61 -37 -64
-45 -41 -109 32 -90 5 -107 -60 -40 -21 22 -44 40 -50 40 -5 0 -28 -14 -49
-30 -66 -50 -84 -34 -46 40 24 47 25 66 5 74 -28 10 -15 33 25 45 24 7 47 22
57 39 23 37 55 73 61 67 2 -2 7 -18 11 -36z m213 -64 c3 -16 1 -25 -7 -25 -8
0 -10 9 -7 25 2 14 6 25 7 25 1 0 5 -11 7 -25z m120 -17 c-15 -15 -26 -4 -18
18 5 13 9 15 18 6 9 -9 9 -15 0 -24z m123 22 c3 -5 1 -10 -4 -10 -6 0 -11 5
-11 10 0 6 2 10 4 10 3 0 8 -4 11 -10z m72 -27 c-3 -10 -5 -4 -5 12 0 17 2 24
5 18 2 -7 2 -21 0 -30z m-353 11 c3 -8 2 -12 -4 -9 -6 3 -10 10 -10 16 0 14 7
11 14 -7z m73 -16 c-3 -7 -5 -2 -5 12 0 14 2 19 5 13 2 -7 2 -19 0 -25z m44
18 c5 3 9 1 9 -5 0 -5 -4 -13 -10 -16 -5 -3 -10 -4 -10 -1 0 2 -2 10 -3 18 -2
7 -2 10 0 5 3 -4 9 -5 14 -1z m66 -8 c-3 -8 -6 -5 -6 6 -1 11 2 17 5 13 3 -3
4 -12 1 -19z m46 9 c4 3 7 1 7 -5 0 -18 -27 -14 -34 4 -5 13 -4 14 7 6 8 -7
17 -9 20 -5z m24 -9 c-3 -8 -6 -5 -6 6 -1 11 2 17 5 13 3 -3 4 -12 1 -19z m62
0 c0 -13 -3 -17 -6 -10 -2 6 -10 9 -16 5 -7 -4 -6 1 2 10 18 22 21 21 20 -5z
m18 0 c-3 -8 -6 -5 -6 6 -1 11 2 17 5 13 3 -3 4 -12 1 -19z m54 13 c7 11 9 10
9 -3 0 -10 -7 -18 -15 -18 -8 0 -15 8 -14 18 0 12 2 13 6 3 5 -11 7 -11 14 0z
m39 -19 c0 -15 -2 -15 -10 -2 -13 20 -13 33 0 25 6 -3 10 -14 10 -23z m-2153
-97 c30 -55 57 -106 60 -112 4 -10 -13 -13 -65 -13 l-71 0 -47 87 c-26 48 -43
88 -38 90 5 2 27 14 49 28 22 13 44 23 49 22 5 -2 33 -48 63 -102z m1787 59
c22 -8 10 -23 -13 -17 -13 3 -23 -2 -30 -15 -16 -30 -3 -52 31 -52 17 0 27 -4
23 -10 -9 -14 -58 -13 -73 2 -20 20 -14 65 10 82 25 18 30 19 52 10z m336 -4
c0 -5 -4 -10 -10 -10 -5 0 -10 5 -10 10 0 6 5 10 10 10 6 0 10 -4 10 -10z
m270 -46 l0 -55 -31 3 c-18 2 -37 11 -43 20 -9 14 -4 24 24 52 19 20 38 36 43
36 4 0 7 -25 7 -56z m188 38 c2 -7 -2 -10 -12 -6 -23 9 -20 -8 5 -29 29 -26
21 -51 -19 -55 -20 -2 -32 1 -32 9 0 6 8 9 20 6 12 -3 20 0 20 7 0 6 -9 17
-20 24 -23 14 -26 32 -8 50 15 15 40 12 46 -6z m132 -21 c0 -22 3 -46 6 -55 4
-10 1 -16 -9 -16 -11 0 -16 13 -19 45 -4 50 -1 65 13 65 5 0 9 -18 9 -39z
m-822 -24 c4 -34 22 -36 22 -2 0 16 6 25 15 25 10 0 15 -11 15 -35 0 -33 -2
-35 -35 -35 -35 0 -39 6 -35 43 1 13 -4 18 -17 15 -11 -2 -19 -14 -21 -31 -5
-41 -22 -33 -22 11 0 37 1 38 38 37 33 0 37 -3 40 -28z m122 25 c0 -4 -7 -18
-16 -30 -14 -20 -12 -26 9 -23 4 0 7 -3 7 -9 0 -5 -13 -10 -30 -10 -34 0 -35
2 -17 31 10 17 10 23 0 26 -23 8 -13 20 17 21 17 0 30 -3 30 -6z m54 2 c24 -9
20 -44 -5 -44 -12 0 -17 -4 -14 -11 4 -6 13 -8 21 -5 8 3 14 1 14 -4 0 -14
-44 -12 -58 2 -16 16 -15 33 4 52 18 18 17 18 38 10z m56 -34 c0 -22 -4 -40
-10 -40 -11 0 -14 63 -3 73 11 12 13 8 13 -33z m70 31 c0 -5 -7 -11 -15 -15
-8 -3 -15 -17 -15 -31 0 -14 -4 -25 -10 -25 -5 0 -10 15 -10 34 0 24 5 36 18
39 28 8 32 7 32 -2z m64 -7 c31 -30 8 -69 -36 -62 -30 4 -38 46 -12 65 23 17
29 16 48 -3z m210 0 c31 -30 13 -67 -30 -62 -35 4 -47 44 -18 65 23 17 29 16
48 -3z m156 -14 c0 -20 5 -30 15 -30 9 0 15 9 15 25 0 14 5 25 10 25 6 0 10
-16 10 -36 0 -34 -1 -35 -32 -32 -30 3 -33 6 -36 41 -2 21 1 37 7 37 6 0 11
-13 11 -30z m-10910 -10 c9 13 10 13 10 0 0 -13 1 -13 10 0 8 12 10 11 10 -7
0 -19 -6 -23 -30 -23 -24 0 -30 4 -30 23 0 18 2 19 10 7 9 -13 11 -13 20 0z
m8133 -59 c15 -27 27 -52 27 -55 0 -3 -31 -6 -70 -6 -60 0 -71 3 -80 21 -7 11
-9 24 -5 27 9 9 89 61 95 61 3 1 17 -21 33 -48z m-8103 -172 c0 -14 -7 -19
-30 -19 -23 0 -30 5 -30 19 0 13 8 21 23 23 29 5 37 1 37 -23z m7825 -439 c19
0 35 -4 35 -10 0 -5 -18 -10 -40 -10 l-40 0 2 73 2 72 3 -62 4 -63 34 0z
m4462 19 c3 -16 10 -32 14 -35 14 -8 10 -27 -4 -21 -8 3 -35 1 -62 -4 -32 -6
-52 -6 -59 1 -7 7 -4 10 10 10 16 0 17 2 4 10 -21 13 -58 12 -62 -2 -5 -15
-86 -39 -94 -27 -3 5 6 13 19 18 37 14 40 27 11 46 -20 13 -23 19 -14 30 7 8
9 19 5 25 -3 5 -2 10 3 10 17 0 21 -12 9 -31 -20 -31 -2 -31 79 4 l79 34 28
-19 c15 -11 31 -33 34 -49z m161 61 c85 -48 166 -70 133 -37 -17 17 -13 37 6
37 13 0 14 -3 5 -12 -9 -9 -9 -15 0 -26 10 -11 7 -18 -12 -32 l-23 -17 26 -18
c15 -9 25 -21 22 -25 -7 -12 -85 13 -85 27 0 8 -9 11 -22 9 -13 -3 -30 -5 -38
-5 -13 -1 -13 -2 0 -11 26 -16 2 -23 -44 -11 -24 6 -52 8 -60 5 -19 -7 -19 -6
-5 37 11 32 55 87 72 88 4 1 15 -3 25 -9z m-4510 -12 c19 -19 14 -38 -10 -38
-13 0 -30 -4 -38 -10 -16 -10 -10 -14 35 -23 19 -4 19 -4 1 -12 -37 -16 -71
29 -55 73 9 24 47 30 67 10z m98 1 c16 -13 19 -79 4 -79 -5 0 -10 15 -10 34 0
62 -45 55 -53 -7 -3 -25 -4 -22 -5 13 -2 43 0 46 24 48 15 1 33 -3 40 -9z
m108 -5 c21 -21 20 -40 -4 -64 -24 -24 -38 -25 -62 -3 -21 18 -24 53 -6 71 17
17 54 15 72 -4z m46 -21 l14 -38 14 38 c8 20 18 37 23 37 7 0 -25 -87 -36 -98
-4 -5 -30 44 -39 76 -12 38 9 24 24 -15z m146 12 c15 -23 15 -27 0 -50 -28
-42 -86 -23 -86 29 0 49 58 63 86 21z m1367 -24 c66 -73 82 -127 50 -163 -20
-22 -46 -23 -67 -2 -15 14 -16 14 -16 -3 0 -10 7 -29 16 -41 15 -22 15 -22
-26 -22 -41 0 -41 0 -26 22 9 12 16 31 16 41 0 17 -1 17 -16 3 -32 -33 -84 -5
-84 44 0 37 85 160 111 160 4 0 23 -18 42 -39z m251 -53 c16 -26 -4 -52 -43
-56 -23 -2 -31 -8 -31 -23 0 -10 -7 -19 -15 -19 -12 0 -15 13 -15 61 l0 60 46
-3 c31 -2 51 -9 58 -20z m130 0 c22 -31 20 -55 -8 -83 -27 -27 -57 -26 -87 1
-41 37 -11 104 46 104 24 0 39 -7 49 -22z m56 -5 l0 -27 28 27 c38 36 60 36
34 -1 -20 -27 -20 -28 -1 -52 23 -30 24 -40 4 -40 -8 0 -19 9 -25 20 -6 11
-15 20 -21 20 -6 0 -13 -9 -16 -20 -3 -11 -12 -20 -19 -20 -10 0 -14 15 -14
53 0 30 3 57 7 60 14 14 23 6 23 -20z m200 17 c0 -5 -7 -11 -15 -11 -8 -1 -19
-3 -25 -4 -5 -1 -14 -3 -20 -4 -24 -3 -7 -21 20 -21 17 0 30 -4 30 -10 0 -5
-14 -10 -31 -10 -41 0 -33 -24 9 -28 51 -5 37 -22 -18 -22 l-51 0 3 60 2 60
48 0 c26 0 48 -4 48 -10z m118 -18 c2 -13 -2 -30 -9 -38 -9 -11 -9 -18 -1 -26
16 -16 15 -28 -3 -28 -8 0 -20 9 -27 20 -7 11 -18 20 -25 20 -7 0 -13 -9 -13
-20 0 -11 -6 -20 -12 -20 -9 0 -12 17 -11 57 1 32 2 59 2 61 1 2 22 2 49 0 40
-3 47 -6 50 -26z m112 14 c0 -9 -9 -14 -24 -13 -33 3 -34 -17 -2 -21 29 -4 43
-36 26 -57 -16 -19 -94 -21 -87 -2 2 7 17 11 36 9 42 -5 38 21 -5 28 -32 6
-43 32 -24 55 16 20 80 20 80 1z m120 3 c0 -6 -9 -13 -20 -16 -16 -4 -20 -14
-20 -49 0 -32 -4 -44 -15 -44 -11 0 -15 12 -15 45 0 33 -4 45 -15 45 -8 0 -15
7 -15 15 0 11 12 15 50 15 30 0 50 -4 50 -11z m99 -40 c25 -61 26 -69 6 -69
-8 0 -15 5 -15 10 0 6 -13 10 -29 10 -17 0 -33 -4 -36 -10 -3 -5 -12 -10 -20
-10 -12 0 -11 6 2 38 8 20 19 47 24 60 15 39 44 27 68 -29z m139 17 c2 -16 -2
-32 -9 -37 -10 -6 -9 -12 5 -28 19 -21 19 -21 0 -21 -11 0 -25 9 -32 20 -7 11
-17 20 -22 20 -6 0 -10 -9 -10 -20 0 -11 -7 -20 -15 -20 -12 0 -15 13 -15 61
l0 60 48 -3 c44 -3 47 -5 50 -32z m112 20 c-3 -6 -14 -10 -25 -10 -32 -1 -32
-21 1 -26 21 -4 30 -12 32 -29 5 -31 -10 -44 -49 -43 -47 1 -62 22 -16 22 48
0 52 27 5 32 -36 3 -49 28 -27 54 13 16 88 16 79 0z m-2820 -71 c29 -18 -10
-41 -41 -25 -24 13 -55 -1 -64 -30 -14 -44 42 -87 73 -56 15 15 14 16 -11 16
-20 0 -27 5 -27 20 0 17 7 20 45 20 29 0 48 -5 51 -13 9 -24 -15 -66 -47 -82
-76 -40 -150 41 -112 122 22 47 82 60 133 28z m245 11 c19 -8 35 -19 35 -24 0
-16 -30 -23 -51 -12 -13 8 -25 7 -40 -1 -24 -12 -46 1 -34 21 6 9 35 25 53 29
1 1 18 -6 37 -13z m-653 -63 l3 -68 43 -3 c28 -2 42 -8 42 -18 0 -11 -14 -14
-60 -14 l-60 0 0 85 c0 68 3 85 15 85 11 0 15 -16 17 -67z m238 52 c0 -11 -12
-15 -46 -15 -38 0 -45 -3 -42 -17 2 -13 15 -19 46 -21 28 -2 42 -8 42 -18 0
-10 -12 -14 -45 -14 -38 0 -45 -3 -45 -20 0 -17 7 -20 45 -20 34 0 45 -4 45
-15 0 -13 -11 -15 -62 -13 l-63 3 -3 83 -3 82 66 0 c51 0 65 -3 65 -15z m270
-70 c0 -78 -2 -85 -20 -85 -18 0 -20 7 -20 85 0 78 2 85 20 85 18 0 20 -7 20
-85z m297 38 l42 -48 1 48 c0 40 3 47 20 47 18 0 20 -7 20 -85 0 -102 -9 -107
-69 -37 l-41 47 0 -47 c0 -41 -3 -48 -20 -48 -18 0 -20 7 -20 85 0 59 4 85 12
85 7 0 31 -21 55 -47z m3688 -73 l0 -74 -37 -2 c-40 -3 -68 15 -68 44 0 29 18
46 47 48 22 1 28 6 30 25 2 40 3 41 16 37 8 -3 12 -28 12 -78z m310 -1 c0 -59
-3 -74 -15 -74 -11 0 -16 15 -18 64 -3 71 2 95 21 89 8 -3 12 -28 12 -79z m53
6 c3 -63 -8 -98 -24 -82 -5 5 -9 129 -5 155 1 2 7 2 14 0 7 -3 13 -29 15 -73z
m-12714 48 c-5 -17 -5 -17 9 0 19 22 37 22 37 -2 0 -13 -7 -18 -25 -18 -27 0
-40 11 -30 27 10 16 15 12 9 -7z m8426 -13 c0 -9 9 -29 20 -43 11 -14 20 -32
20 -41 0 -14 -3 -15 -22 -5 -35 18 -47 40 -48 81 0 29 3 36 15 32 8 -4 15 -14
15 -24z m140 -11 c0 -32 -38 -79 -65 -79 -21 0 -19 23 5 45 11 10 20 26 20 35
0 19 20 41 32 34 4 -3 8 -19 8 -35z m3552 16 c9 -20 8 -28 -6 -44 -17 -18 -17
-22 -2 -43 20 -28 20 -38 2 -38 -8 0 -23 15 -35 33 l-21 32 0 -32 c0 -23 -5
-33 -15 -33 -15 0 -17 9 -17 95 0 25 1 47 1 50 1 3 19 5 41 5 33 0 42 -4 52
-25z m368 10 c7 -8 9 -22 6 -31 -4 -9 -1 -23 5 -30 6 -8 9 -25 5 -38 -6 -24
-30 -36 -78 -36 l-28 0 0 75 0 75 39 0 c22 0 44 -6 51 -15z m-266 -57 c19 -27
12 -38 -25 -38 -18 0 -28 -4 -24 -10 3 -6 17 -7 31 -4 26 7 34 -10 8 -20 -27
-10 -43 -7 -64 14 -21 21 -18 46 8 68 24 18 49 15 66 -10z m394 -15 c5 -53
-47 -83 -82 -47 -20 20 -21 74 -2 74 9 0 16 -12 18 -27 4 -41 32 -36 36 5 4
41 26 38 30 -5z m-12568 -142 c0 -10 -7 -22 -16 -25 -23 -9 -34 -7 -34 4 0 6
9 10 20 10 30 0 24 18 -7 23 -26 4 -26 4 5 6 25 1 32 -3 32 -18z m-15 -431
c-20 -22 -44 -28 -26 -6 9 11 9 15 -1 19 -7 3 0 6 16 6 28 1 29 1 11 -19z m9
-419 c4 -5 -3 -7 -14 -4 -23 6 -26 13 -6 13 8 0 17 -4 20 -9z"/>
<path d="M13021 4643 c12 -14 12 -17 0 -21 -8 -3 -25 -16 -38 -30 -20 -21 -23
-34 -20 -76 5 -67 38 -105 103 -117 50 -9 77 -2 50 13 -10 6 -16 22 -16 48 0
21 -6 41 -12 43 -7 3 20 4 60 2 64 -3 72 -1 72 15 0 21 -16 35 -24 21 -8 -12
-46 -2 -46 13 0 25 18 36 50 34 39 -3 49 15 27 46 -12 16 -30 19 -116 22 -94
3 -102 2 -90 -13z"/>
<path d="M13760 4570 c-38 -38 -12 -100 42 -100 24 0 58 35 58 60 0 26 -34 60
-60 60 -11 0 -29 -9 -40 -20z"/>
<path d="M4836 3355 c-15 -58 33 -148 95 -180 15 -8 49 -15 76 -15 77 0 35
-24 -47 -27 -77 -3 -120 -20 -205 -83 -110 -81 -190 -189 -230 -310 -28 -86
-41 -175 -30 -217 7 -28 7 -28 24 18 18 45 61 112 68 105 2 -2 -3 -21 -12 -41
-66 -160 -61 -372 12 -506 32 -59 86 -124 79 -94 -6 24 -9 77 -6 130 1 38 2
36 24 -35 12 -41 35 -99 50 -129 58 -112 181 -201 324 -235 l62 -14 -45 50
c-44 49 -63 87 -27 55 29 -27 126 -67 199 -82 127 -27 272 -14 339 30 l27 17
-62 21 c-76 25 -145 84 -186 158 -23 44 -30 69 -33 137 -5 96 10 147 64 218
l34 44 -38 0 c-21 0 -63 7 -93 16 -143 42 -246 154 -264 284 -6 42 -5 41 17
-21 69 -194 263 -281 487 -218 57 16 92 20 141 16 74 -6 104 -17 173 -64 64
-43 106 -50 163 -28 65 25 97 76 91 147 -4 47 -45 179 -61 195 -12 12 -18 -6
-19 -61 -2 -66 -12 -73 -22 -15 -4 22 -17 52 -29 66 l-23 26 -12 -59 c-16 -85
-16 -85 -86 -63 -33 10 -76 19 -95 19 -46 0 -100 61 -100 112 1 49 31 108 78
150 23 21 42 40 42 42 0 11 -69 -17 -107 -44 -24 -16 -43 -26 -43 -22 0 15 55
61 92 76 43 18 172 22 213 6 25 -10 27 -14 23 -65 -2 -45 0 -55 13 -55 17 0
60 43 78 78 17 33 34 16 29 -29 -6 -64 28 -46 71 36 43 83 52 107 58 150 6 44
5 45 -48 95 -60 56 -59 62 7 24 32 -19 44 -22 44 -12 0 24 -52 65 -130 102
-59 28 -95 38 -170 46 -53 5 -140 23 -195 41 -90 28 -109 30 -185 25 -47 -3
-119 -15 -160 -26 -99 -28 -226 -28 -346 -1 -50 11 -103 25 -118 31 -44 16
-63 12 -70 -15z m757 -59 c41 -17 68 -43 61 -59 -4 -11 -16 -11 -54 -3 -48 10
-50 11 -47 43 1 18 3 33 5 33 1 0 17 -6 35 -14z m121 -67 c-3 -5 -17 -9 -31
-9 -21 0 -23 3 -14 14 12 15 55 10 45 -5z m-47 -589 c8 0 11 -5 8 -10 -7 -12
-44 5 -62 29 -22 28 -14 31 13 6 15 -14 33 -25 41 -25z"/>
<path d="M12360 3051 c-30 -4 33 -6 140 -7 120 0 172 3 135 7 -72 8 -199 8
-275 0z"/>
<path d="M12268 3033 c7 -3 16 -2 19 1 4 3 -2 6 -13 5 -11 0 -14 -3 -6 -6z"/>
<path d="M12718 3033 c7 -3 16 -2 19 1 4 3 -2 6 -13 5 -11 0 -14 -3 -6 -6z"/>
<path d="M12780 3015 c0 -9 5 -15 11 -13 6 2 11 8 11 13 0 5 -5 11 -11 13 -6
2 -11 -4 -11 -13z"/>
<path d="M12377 3013 c-4 -3 -7 -28 -7 -55 0 -45 2 -48 25 -48 14 0 25 5 25
10 0 6 -7 10 -16 10 -12 0 -15 9 -13 40 3 40 -2 56 -14 43z"/>
<path d="M12430 2965 c0 -55 15 -75 23 -32 l4 22 8 -24 c8 -23 9 -23 22 -6 12
17 13 17 13 2 0 -9 5 -17 10 -17 6 0 10 25 10 55 0 60 -14 72 -31 28 l-11 -28
-10 28 c-17 49 -38 34 -38 -28z"/>
<path d="M12557 3013 c-3 -5 -8 -30 -12 -56 -8 -49 -7 -49 15 -35 18 10 24 10
27 1 11 -30 23 -11 17 25 -11 59 -32 89 -47 65z m23 -48 c0 -8 -4 -15 -10 -15
-5 0 -10 7 -10 15 0 8 5 15 10 15 6 0 10 -7 10 -15z"/>
<path d="M12626 3013 c-10 -10 -7 -101 3 -108 5 -3 11 7 13 22 l4 28 12 -28
c7 -16 16 -25 22 -22 13 8 13 92 0 100 -5 3 -10 -1 -10 -9 0 -9 -4 -16 -10
-16 -5 0 -10 6 -10 14 0 17 -14 28 -24 19z"/>
<path d="M12247 3003 c-4 -3 -7 -28 -7 -55 0 -45 2 -48 25 -48 14 0 25 5 25
11 0 5 -4 8 -9 4 -18 -10 -24 18 -7 30 14 11 15 13 1 19 -19 7 -20 26 0 26 8
0 15 5 15 10 0 11 -33 14 -43 3z"/>
<path d="M12310 2961 c0 -54 5 -62 34 -51 17 6 18 7 3 13 -12 4 -17 18 -17 47
0 22 -4 40 -10 40 -5 0 -10 -22 -10 -49z"/>
<path d="M12710 2958 c0 -32 4 -58 10 -58 6 0 10 8 11 18 0 13 2 12 9 -5 16
-40 30 -25 30 32 0 30 -4 55 -10 55 -5 0 -10 -7 -10 -16 0 -12 -5 -11 -20 7
l-19 24 -1 -57z"/>
<path d="M12194 2975 c-7 -30 -24 -33 -24 -5 0 11 -4 20 -10 20 -5 0 -10 -25
-10 -55 0 -30 5 -55 10 -55 6 0 10 11 10 25 0 14 5 25 10 25 6 0 10 -9 10 -20
0 -11 7 -20 15 -20 11 0 15 12 15 49 0 55 -16 77 -26 36z"/>
<path d="M12806 2984 c-17 -17 -15 -26 17 -61 20 -23 11 -33 -10 -12 -8 8 -13
8 -17 0 -11 -17 3 -31 29 -31 32 0 40 28 15 55 -22 23 -30 59 -8 37 14 -14 28
-16 28 -2 0 5 -9 14 -19 20 -15 7 -23 6 -35 -6z"/>
<path d="M12355 2814 c-13 -7 -32 -14 -42 -17 -14 -4 -13 -5 5 -6 12 0 22 -5
22 -11 0 -5 5 -10 10 -10 6 0 10 9 10 19 0 16 8 20 43 23 41 3 41 3 9 9 -19 3
-43 0 -57 -7z"/>
<path d="M12615 2820 c-17 -7 -15 -9 12 -9 17 -1 34 -5 37 -10 9 -14 -5 -41
-21 -41 -8 0 -11 -4 -8 -10 10 -16 20 -12 38 19 17 29 17 30 -5 45 -25 18 -25
18 -53 6z"/>
<path d="M12480 2790 c-8 -5 -11 -12 -8 -15 4 -4 17 0 30 9 24 17 5 23 -22 6z"/>
<path d="M12350 2756 c0 -2 7 -9 15 -16 13 -11 14 -10 9 4 -5 14 -24 23 -24
12z"/>
<path d="M12403 2753 c9 -2 25 -2 35 0 9 3 1 5 -18 5 -19 0 -27 -2 -17 -5z"/>
<path d="M9956 2995 c-16 -24 -16 -25 4 -25 15 0 20 7 20 25 0 14 -2 25 -4 25
-2 0 -11 -11 -20 -25z"/>
<path d="M10026 2961 c-4 -5 -3 -16 0 -24 5 -13 9 -13 35 1 16 10 29 20 29 25
0 10 -58 9 -64 -2z"/>
<path d="M9925 2935 c-28 -27 -31 -45 -13 -63 17 -17 29 -15 61 11 25 20 27
25 18 50 -13 34 -34 34 -66 2z"/>
<path d="M9864 2929 c-3 -6 0 -15 7 -20 13 -7 28 5 29 24 0 11 -28 8 -36 -4z"/>
<path d="M9872 2845 c-19 -41 -14 -47 18 -24 23 17 27 26 19 36 -16 19 -24 16
-37 -12z"/>
<path d="M9981 2851 l-23 -18 33 -26 c18 -14 35 -25 36 -23 2 1 -3 21 -10 44
l-12 41 -24 -18z"/>
<path d="M10803 2834 c-3 -8 -1 -20 6 -27 8 -8 11 -4 11 16 0 30 -7 35 -17 11z"/>
<path d="M10674 2835 c-3 -8 -3 -19 1 -25 11 -18 25 -11 25 15 0 27 -17 34
-26 10z"/>
<path d="M10884 2835 c-7 -17 4 -37 17 -30 12 8 12 45 -1 45 -6 0 -13 -7 -16
-15z"/>
<path d="M12425 2150 c-3 -5 -1 -10 4 -10 6 0 11 5 11 10 0 6 -2 10 -4 10 -3
0 -8 -4 -11 -10z"/>
<path d="M12605 2140 c4 -6 11 -8 16 -5 14 9 11 15 -7 15 -8 0 -12 -5 -9 -10z"/>
<path d="M8090 2215 c-11 -13 -9 -15 15 -15 16 0 25 5 23 12 -7 19 -24 20 -38
3z"/>
<path d="M8292 2221 c-8 -4 -12 -19 -10 -32 2 -18 9 -24 28 -24 28 0 39 27 20
50 -14 17 -20 18 -38 6z"/>
<path d="M8474 2216 c-3 -8 -4 -23 -2 -33 5 -25 51 -25 56 0 7 36 -42 65 -54
33z"/>
<path d="M9850 2150 c0 -14 -7 -20 -21 -20 -19 0 -20 -2 -8 -17 8 -9 12 -25
11 -37 -4 -18 -2 -18 12 -6 13 10 20 10 28 2 18 -18 27 -14 21 8 -3 11 0 27 7
35 10 13 9 15 -9 15 -14 0 -21 6 -21 20 0 11 -4 20 -10 20 -5 0 -10 -9 -10
-20z"/>
<path d="M10080 2120 c0 -16 5 -21 23 -18 12 2 22 10 22 18 0 8 -10 16 -22 18
-18 3 -23 -2 -23 -18z"/>
<path d="M10210 2125 c-26 -31 13 -82 44 -56 19 16 21 42 4 59 -16 16 -33 15
-48 -3z"/>
<path d="M10585 2129 c-4 -6 -2 -15 5 -19 17 -10 42 -1 37 14 -5 16 -34 19
-42 5z"/>
<path d="M10937 2110 c-3 -13 0 -20 9 -20 15 0 19 26 5 34 -5 3 -11 -3 -14
-14z"/>
<path d="M11060 2126 c0 -8 5 -18 10 -21 13 -8 42 14 34 26 -9 15 -44 10 -44
-5z"/>
<path d="M12435 1950 c-4 -7 -3 -16 3 -22 14 -14 45 -2 40 15 -6 16 -34 21
-43 7z"/>
<path d="M12217 2013 c-10 -9 -8 -43 2 -43 5 0 14 6 20 14 8 10 8 16 -2 25 -8
6 -17 8 -20 4z"/>
<path d="M12580 1965 c0 -38 3 -45 19 -45 21 0 41 22 25 27 -5 2 -16 8 -24 14
-11 8 -12 12 -2 16 17 7 15 33 -3 33 -11 0 -15 -12 -15 -45z"/>
<path d="M12325 1960 c-3 -5 1 -10 9 -10 9 0 16 5 16 10 0 6 -4 10 -9 10 -6 0
-13 -4 -16 -10z"/>
</g>
</svg>
